<?xml version="1.0" standalone="no"?>
<!DOCTYPE svg PUBLIC "-//W3C//DTD SVG 20010904//EN"
 "http://www.w3.org/TR/2001/REC-SVG-20010904/DTD/svg10.dtd">
<svg version="1.0" xmlns="http://www.w3.org/2000/svg"
 width="370.000000pt" height="401.000000pt" viewBox="0 0 370.000000 401.000000"
 preserveAspectRatio="xMidYMid meet">
<metadata>
Created by potrace 1.14, written by Peter Selinger 2001-2017
</metadata>
<g transform="translate(0.000000,401.000000) scale(0.100000,-0.100000)"
fill="#000000" stroke="none">
<path d="M1139 3776 c-1 -1 -13 -89 -28 -196 l-26 -195 -195 -5 -195 -5 -3
-837 -2 -837 -125 -117 c-69 -65 -125 -123 -125 -129 0 -6 20 -31 45 -55 l45
-44 203 199 c111 110 232 229 270 265 l67 65 32 -32 32 -32 -269 -265 -270
-264 72 -73 71 -72 268 261 268 262 33 -32 34 -32 -266 -259 c-146 -142 -265
-262 -265 -266 0 -3 19 -28 42 -54 l43 -48 270 264 c149 145 277 266 286 269
11 4 45 104 107 315 51 169 92 313 92 320 0 6 -4 14 -9 17 -5 3 -151 -28 -326
-70 l-317 -76 -114 -117 -113 -116 -1 758 0 757 900 0 900 0 0 -198 c0 -180 2
-200 18 -215 16 -15 47 -17 230 -17 l212 0 0 -1295 0 -1295 -1130 0 -1130 0 0
287 0 287 42 43 41 42 -141 148 c-77 81 -181 188 -231 238 l-91 90 -114 -114
c-117 -116 -133 -142 -117 -183 14 -35 369 -397 397 -404 34 -9 67 2 103 32
l31 26 0 -281 0 -281 1210 0 1210 0 0 86 0 87 60 -6 c56 -5 60 -4 65 16 11 54
306 3140 300 3145 -3 3 -520 56 -1148 118 -1327 129 -1247 121 -1248 120z
m1218 -185 c607 -59 1105 -110 1107 -112 2 -3 -288 -2997 -294 -3026 0 -2 -13
-3 -30 -3 l-30 0 0 1245 0 1244 -241 221 -242 220 -734 0 -735 0 6 28 c3 15
10 81 17 147 6 66 13 126 15 133 2 6 16 12 31 12 15 -1 524 -49 1130 -109z
m477 -495 c83 -76 153 -142 154 -147 2 -5 -73 -9 -172 -9 l-176 0 0 167 0 166
22 -19 c12 -10 89 -81 172 -158z m-1282 -1023 c10 -9 18 -21 18 -27 0 -6 -30
-114 -67 -240 l-68 -229 -192 198 c-106 109 -191 201 -188 203 7 8 427 110
454 111 14 1 33 -6 43 -16z"/>
<path d="M950 2265 l0 -35 915 0 915 0 0 35 0 35 -915 0 -915 0 0 -35z"/>
<path d="M1670 1830 l0 -40 555 0 555 0 0 40 0 40 -555 0 -555 0 0 -40z"/>
<path d="M1417 1402 c-15 -15 -27 -31 -27 -35 0 -4 314 -6 698 -5 l697 3 3 33
3 32 -673 0 -674 0 -27 -28z"/>
<path d="M980 965 l-34 -35 922 0 922 0 0 35 0 35 -888 0 -888 0 -34 -35z"/>
</g>
</svg>
